<?xml version="1.0" encoding="UTF-8"?>
<svg version="1.1" xmlns="http://www.w3.org/2000/svg" width="200" height="200">
<path d="M0 0 C3.59108211 -0.33405415 5.42917158 -0.39638326 8.44140625 1.6953125 C11.02127063 4.0191598 13.10396632 6.39874241 15.25 9.125 C18.23639306 12.85304697 21.277863 16.47367524 24.5 20 C28.37577327 24.25864862 32.04407026 28.64851852 35.66015625 33.12890625 C37.31445406 35.15880423 38.98198704 37.16317587 40.68359375 39.15234375 C41.13226807 39.67973145 41.58094238 40.20711914 42.04321289 40.75048828 C43.30366099 42.22882869 44.56963703 43.70245071 45.8359375 45.17578125 C50.39567228 51.12648206 51.90289684 55.6839717 51 63 C48.01064336 73.23380406 43.20494632 83.04996889 38.98803711 92.82617188 C30.84347149 108.80383317 30.84347149 108.80383317 30.64892578 125.94775391 C31.53318852 127.96120654 32.51354978 129.87992193 33.5625 131.8125 C33.92384033 132.5031958 34.28518066 133.1938916 34.6574707 133.90551758 C38.9286537 141.95171245 43.23324985 149.78190526 50 156 C53.01463569 159.09611233 53.94222318 160.31823352 54.3125 164.6875 C54 168 54 168 53 170 C50.5 170.4375 50.5 170.4375 47 170 C44.80947612 168.42230125 42.91052742 166.66580052 40.9453125 164.81640625 C36.37769469 160.55146191 31.23012204 157 24.796875 157 C20.24467937 157.36176389 16.50969355 157.89141428 13 161 C9.68925363 165.82454159 8.24835523 170.09421968 9 176 C9.84139129 178.44814454 10.87310137 180.65605084 12 183 C12.33 183.99 12.66 184.98 13 186 C13.721875 186.28875 14.44375 186.5775 15.1875 186.875 C18.83454656 188.33381862 21.19763056 190.26132077 24 193 C24.9375 195.75 24.9375 195.75 25 198 C24 199 24 199 20.9296875 199.28125 C16.27103184 198.94782733 13.20773988 197.64120085 9.125 195.5 C8.42391113 195.1376123 7.72282227 194.77522461 7.00048828 194.40185547 C-3.59328471 188.73598891 -10.70286786 181.37832894 -15.140625 170.1015625 C-16.90537607 163.73241545 -16.93684133 156.76121654 -14.8125 150.5 C-10.65796247 144.7696034 -5.65464021 140.17907277 1.359375 138.40234375 C4.18993597 137.97106005 6.88683337 137.83143629 9.75 137.8125 C10.71421875 137.79832031 11.6784375 137.78414062 12.671875 137.76953125 C16.90580907 138.06272621 20.88719558 138.98672532 25 140 C24.26136719 138.97003906 23.52273437 137.94007813 22.76171875 136.87890625 C19.47454786 132.27566711 16.23153083 127.64241532 13 123 C12.46149414 122.23155762 11.92298828 121.46311523 11.36816406 120.67138672 C9.8295675 118.4605462 8.31778869 116.23361354 6.8125 114 C6.34352295 113.33170166 5.8745459 112.66340332 5.39135742 111.97485352 C2.17679277 107.12633338 0.31417904 102.88768831 1 97 C2.61588651 91.50124225 4.77678613 86.27654534 7 81 C7.5998103 79.54189175 8.19827724 78.08323019 8.79541016 76.62402344 C10.92699023 71.43784152 13.09228153 66.26592187 15.27270508 61.10009766 C16.20435835 58.88935464 17.12806587 56.67542293 18.05078125 54.4609375 C18.33303055 53.79838959 18.61527985 53.13584167 18.90608215 52.45321655 C21.73514804 45.87500286 21.73514804 45.87500286 21.40942383 38.9387207 C20.907052 38.03512817 20.907052 38.03512817 20.39453125 37.11328125 C20.01893066 36.43475098 19.64333008 35.7562207 19.25634766 35.05712891 C17.19056159 31.67463505 14.98063562 28.41918982 12.6875 25.1875 C11.71510179 23.78848551 10.74375037 22.38874287 9.7734375 20.98828125 C8.84911873 19.65874264 7.92464914 18.32930887 7 17 C5.58806575 14.96943477 4.18957246 12.92936728 2.8125 10.875 C1.98685547 9.66457031 1.98685547 9.66457031 1.14453125 8.4296875 C-0.25044998 5.46832804 -0.21096731 3.23483207 0 0 Z " fill="#000065" transform="translate(50,0)"/>
<path d="M0 0 C1.98 0 3.96 0 6 0 C6 7.59 6 15.18 6 23 C10.95 22.34 15.9 21.68 21 21 C21 25.62 21 30.24 21 35 C15.4531674 36.55700564 12.02793513 37 6 37 C6 43.93 6 50.86 6 58 C10.95 57.34 15.9 56.68 21 56 C21 60.95 21 65.9 21 71 C14 72 14 72 6 72 C6 80.58 6 89.16 6 98 C4.02 98 2.04 98 0 98 C0 90.08 0 82.16 0 74 C-5.28 74.66 -10.56 75.32 -16 76 C-16 84.25 -16 92.5 -16 101 C-18.475 101.495 -18.475 101.495 -21 102 C-22 101 -22 101 -22.11352539 98.68334961 C-22.10828857 97.68311768 -22.10305176 96.68288574 -22.09765625 95.65234375 C-22.09443359 94.57275391 -22.09121094 93.49316406 -22.08789062 92.38085938 C-22.07951172 91.24455078 -22.07113281 90.10824219 -22.0625 88.9375 C-22.05798828 87.79732422 -22.05347656 86.65714844 -22.04882812 85.48242188 C-22.03699747 82.65489649 -22.0205141 79.8274736 -22 77 C-23.12148437 77.2165625 -23.12148437 77.2165625 -24.265625 77.4375 C-25.25046875 77.623125 -26.2353125 77.80875 -27.25 78 C-28.22453125 78.185625 -29.1990625 78.37125 -30.203125 78.5625 C-33 79 -33 79 -37 79 C-37 74.38 -37 69.76 -37 65 C-31.6074973 63.69272662 -27.64347623 63 -22 63 C-22 56.07 -22 49.14 -22 42 C-29.425 42.99 -29.425 42.99 -37 44 C-37.09765625 33.16015625 -37.09765625 33.16015625 -37 30 C-34.35391698 27.35391698 -26.25416342 27.47390729 -23 27 C-22.67 19.08 -22.34 11.16 -22 3 C-20.02 3 -18.04 3 -16 3 C-15.67 10.59 -15.34 18.18 -15 26 C-8.07 25.01 -8.07 25.01 -1 24 C-0.67 16.08 -0.34 8.16 0 0 Z M-8.5625 38.9375 C-9.73941406 39.11152344 -10.91632813 39.28554687 -12.12890625 39.46484375 C-14.88752216 39.69900046 -14.88752216 39.69900046 -16 41 C-16.08685603 42.56172745 -16.10702219 44.12729344 -16.09765625 45.69140625 C-16.09443359 46.63564453 -16.09121094 47.57988281 -16.08789062 48.55273438 C-16.07951172 49.54595703 -16.07113281 50.53917969 -16.0625 51.5625 C-16.05798828 52.55958984 -16.05347656 53.55667969 -16.04882812 54.58398438 C-16.03700007 57.05604849 -16.02051849 59.52799518 -16 62 C-13.7077546 61.69177379 -11.41621545 61.37829126 -9.125 61.0625 C-7.84882813 60.88847656 -6.57265625 60.71445313 -5.2578125 60.53515625 C-2.12440546 60.18566773 -2.12440546 60.18566773 0 59 C0 52.07 0 45.14 0 38 C-2.90370906 38 -5.69236705 38.50587737 -8.5625 38.9375 Z " fill="#000065" transform="translate(145,62)"/>
</svg>
